<svg xmlns="http://www.w3.org/2000/svg" viewBox="0 0 639.73 40.45"><defs><style>.cls-1{fill:#fe9900;opacity:0.5;}</style></defs><g id="Calque_2" data-name="Calque 2"><g id="Calque_1-2" data-name="Calque 1"><polygon class="cls-1" points="415.73 40.45 367.09 22.1 367.09 0 415.73 18.36 415.73 40.45"/><polygon class="cls-1" points="447.73 0 399.09 18.35 399.09 40.45 447.73 22.09 447.73 0"/><polygon class="cls-1" points="479.73 0 431.09 18.35 431.09 40.45 479.73 22.09 479.73 0"/><polygon class="cls-1" points="511.73 40.45 463.09 22.1 463.09 0 511.73 18.36 511.73 40.45"/><polygon class="cls-1" points="543.73 0 495.09 18.35 495.09 40.45 543.73 22.09 543.73 0"/><polygon class="cls-1" points="575.73 0 527.09 18.35 527.09 40.45 575.73 22.09 575.73 0"/><polygon class="cls-1" points="607.73 40.45 559.09 22.1 559.09 0 607.73 18.36 607.73 40.45"/><polygon class="cls-1" points="639.73 0 591.09 18.35 591.09 40.45 639.73 22.09 639.73 0"/><polygon class="cls-1" points="383.73 0 383.73 22.09 335.09 40.45 4.12 38.69 0 20.18 335.09 18.37 335.09 18.35 383.73 0"/></g></g></svg>